solid OpenSCAD_Model
  facet normal -1 0 0
    outer loop
      vertex 15 -5 -39
      vertex 15 5 2
      vertex 15 5 -39
    endloop
  endfacet
  facet normal -1 -0 0
    outer loop
      vertex 15 5 2
      vertex 15 -5 -39
      vertex 15 -5 2
    endloop
  endfacet
  facet normal -0 0 1
    outer loop
      vertex 15 5 2
      vertex 19 -5 2
      vertex 19 5 2
    endloop
  endfacet
  facet normal 0 0 1
    outer loop
      vertex 19 -5 2
      vertex 15 5 2
      vertex 15 -5 2
    endloop
  endfacet
  facet normal 1 -0 0
    outer loop
      vertex 19 -5 -9.5
      vertex 19 3 -33.5
      vertex 19 3 -9.5
    endloop
  endfacet
  facet normal 1 0 0
    outer loop
      vertex 19 3 -33.5
      vertex 19 -5 -9.5
      vertex 19 -5 -33.5
    endloop
  endfacet
  facet normal 1 0 0
    outer loop
      vertex 19 3 -9.5
      vertex 19 5 2
      vertex 19 3 -4.5
    endloop
  endfacet
  facet normal 1 -0 0
    outer loop
      vertex 19 -5 2
      vertex 19 3 -4.5
      vertex 19 5 2
    endloop
  endfacet
  facet normal 1 0 0
    outer loop
      vertex 19 3 -4.5
      vertex 19 -5 2
      vertex 19 -5 -4.5
    endloop
  endfacet
  facet normal 1 0 0
    outer loop
      vertex 19 5 2
      vertex 19 3 -9.5
      vertex 19 5 -39
    endloop
  endfacet
  facet normal 1 -0 0
    outer loop
      vertex 19 3 -33.5
      vertex 19 5 -39
      vertex 19 3 -9.5
    endloop
  endfacet
  facet normal 1 -0 0
    outer loop
      vertex 19 3 -38.5
      vertex 19 5 -39
      vertex 19 3 -33.5
    endloop
  endfacet
  facet normal 1 0 0
    outer loop
      vertex 19 -5 -39
      vertex 19 3 -38.5
      vertex 19 -5 -38.5
    endloop
  endfacet
  facet normal 1 0 0
    outer loop
      vertex 19 3 -38.5
      vertex 19 -5 -39
      vertex 19 5 -39
    endloop
  endfacet
  facet normal 0 0 -1
    outer loop
      vertex 15 -5 -39
      vertex 19 5 -39
      vertex 19 -5 -39
    endloop
  endfacet
  facet normal -0 0 -1
    outer loop
      vertex 19 5 -39
      vertex 15 -5 -39
      vertex 15 5 -39
    endloop
  endfacet
  facet normal 0 -1 0
    outer loop
      vertex 15 -5 2
      vertex 19 -5 -4.5
      vertex 19 -5 2
    endloop
  endfacet
  facet normal 0 -1 0
    outer loop
      vertex 19 -5 -4.5
      vertex 19 -5 -9.5
      vertex 31 -5 -4.5
    endloop
  endfacet
  facet normal 0 -1 0
    outer loop
      vertex 15 -5 2
      vertex 19 -5 -9.5
      vertex 19 -5 -4.5
    endloop
  endfacet
  facet normal 0 -1 0
    outer loop
      vertex 15 -5 -39
      vertex 19 -5 -9.5
      vertex 15 -5 2
    endloop
  endfacet
  facet normal 0 -1 0
    outer loop
      vertex 19 -5 -33.5
      vertex 19 -5 -38.5
      vertex 31 -5 -33.5
    endloop
  endfacet
  facet normal 0 -1 -0
    outer loop
      vertex 19 -5 -9.5
      vertex 15 -5 -39
      vertex 19 -5 -33.5
    endloop
  endfacet
  facet normal 0 -1 -0
    outer loop
      vertex 19 -5 -33.5
      vertex 15 -5 -39
      vertex 19 -5 -38.5
    endloop
  endfacet
  facet normal 0 -1 -0
    outer loop
      vertex 19 -5 -38.5
      vertex 15 -5 -39
      vertex 19 -5 -39
    endloop
  endfacet
  facet normal 0 -1 -0
    outer loop
      vertex 31 -5 -4.5
      vertex 19 -5 -9.5
      vertex 31 -5 -9.5
    endloop
  endfacet
  facet normal 0 -1 -0
    outer loop
      vertex 31 -5 -33.5
      vertex 19 -5 -38.5
      vertex 31 -5 -38.5
    endloop
  endfacet
  facet normal 0 1 -0
    outer loop
      vertex 19 5 -39
      vertex 15 5 2
      vertex 19 5 2
    endloop
  endfacet
  facet normal 0 1 0
    outer loop
      vertex 15 5 2
      vertex 19 5 -39
      vertex 15 5 -39
    endloop
  endfacet
  facet normal -0 0 1
    outer loop
      vertex 19 3 -33.5
      vertex 31 -5 -33.5
      vertex 31 3 -33.5
    endloop
  endfacet
  facet normal 0 0 1
    outer loop
      vertex 31 -5 -33.5
      vertex 19 3 -33.5
      vertex 19 -5 -33.5
    endloop
  endfacet
  facet normal 1 -0 0
    outer loop
      vertex 31 -5 -33.5
      vertex 31 3 -38.5
      vertex 31 3 -33.5
    endloop
  endfacet
  facet normal 1 0 0
    outer loop
      vertex 31 3 -38.5
      vertex 31 -5 -33.5
      vertex 31 -5 -38.5
    endloop
  endfacet
  facet normal 0 0 -1
    outer loop
      vertex 19 -5 -38.5
      vertex 31 3 -38.5
      vertex 31 -5 -38.5
    endloop
  endfacet
  facet normal -0 0 -1
    outer loop
      vertex 31 3 -38.5
      vertex 19 -5 -38.5
      vertex 19 3 -38.5
    endloop
  endfacet
  facet normal 0 1 -0
    outer loop
      vertex 31 3 -38.5
      vertex 19 3 -33.5
      vertex 31 3 -33.5
    endloop
  endfacet
  facet normal 0 1 0
    outer loop
      vertex 19 3 -33.5
      vertex 31 3 -38.5
      vertex 19 3 -38.5
    endloop
  endfacet
  facet normal -0 0 1
    outer loop
      vertex 19 3 -4.5
      vertex 31 -5 -4.5
      vertex 31 3 -4.5
    endloop
  endfacet
  facet normal 0 0 1
    outer loop
      vertex 31 -5 -4.5
      vertex 19 3 -4.5
      vertex 19 -5 -4.5
    endloop
  endfacet
  facet normal 1 -0 0
    outer loop
      vertex 31 -5 -4.5
      vertex 31 3 -9.5
      vertex 31 3 -4.5
    endloop
  endfacet
  facet normal 1 0 0
    outer loop
      vertex 31 3 -9.5
      vertex 31 -5 -4.5
      vertex 31 -5 -9.5
    endloop
  endfacet
  facet normal 0 0 -1
    outer loop
      vertex 19 -5 -9.5
      vertex 31 3 -9.5
      vertex 31 -5 -9.5
    endloop
  endfacet
  facet normal -0 0 -1
    outer loop
      vertex 31 3 -9.5
      vertex 19 -5 -9.5
      vertex 19 3 -9.5
    endloop
  endfacet
  facet normal 0 1 -0
    outer loop
      vertex 31 3 -9.5
      vertex 19 3 -4.5
      vertex 31 3 -4.5
    endloop
  endfacet
  facet normal 0 1 0
    outer loop
      vertex 19 3 -4.5
      vertex 31 3 -9.5
      vertex 19 3 -9.5
    endloop
  endfacet
endsolid OpenSCAD_Model
