solid OpenSCAD_Model
  facet normal -0 0 1
    outer loop
      vertex 15 5 38
      vertex 19 -5 38
      vertex 19 5 38
    endloop
  endfacet
  facet normal 0 0 1
    outer loop
      vertex 19 -5 38
      vertex 15 5 38
      vertex 15 -5 38
    endloop
  endfacet
  facet normal 0 0 -1
    outer loop
      vertex 15 -5 8
      vertex 19 5 8
      vertex 19 -5 8
    endloop
  endfacet
  facet normal -0 0 -1
    outer loop
      vertex 19 5 8
      vertex 15 -5 8
      vertex 15 5 8
    endloop
  endfacet
  facet normal 0 -1 0
    outer loop
      vertex 15 -5 8
      vertex 19 -5 38
      vertex 15 -5 38
    endloop
  endfacet
  facet normal 0 -1 -0
    outer loop
      vertex 19 -5 38
      vertex 15 -5 8
      vertex 19 -5 8
    endloop
  endfacet
  facet normal 1 -0 0
    outer loop
      vertex 19 -5 38
      vertex 19 5 8
      vertex 19 5 38
    endloop
  endfacet
  facet normal 1 0 0
    outer loop
      vertex 19 5 8
      vertex 19 -5 38
      vertex 19 -5 8
    endloop
  endfacet
  facet normal 0 1 -0
    outer loop
      vertex 19 5 8
      vertex 15 5 38
      vertex 19 5 38
    endloop
  endfacet
  facet normal 0 1 0
    outer loop
      vertex 15 5 38
      vertex 19 5 8
      vertex 15 5 8
    endloop
  endfacet
  facet normal -1 0 0
    outer loop
      vertex 15 -5 8
      vertex 15 5 38
      vertex 15 5 8
    endloop
  endfacet
  facet normal -1 -0 0
    outer loop
      vertex 15 5 38
      vertex 15 -5 8
      vertex 15 -5 38
    endloop
  endfacet
endsolid OpenSCAD_Model
